<?xml version="1.0" encoding="iso-8859-1"?>
<!-- Uploaded to: SVG Repo, www.svgrepo.com, Generator: SVG Repo Mixer Tools -->
<!DOCTYPE svg PUBLIC "-//W3C//DTD SVG 1.1//EN" "http://www.w3.org/Graphics/SVG/1.1/DTD/svg11.dtd">
<svg fill="#000000" height="800px" width="800px" version="1.1" id="Capa_1" xmlns="http://www.w3.org/2000/svg" xmlns:xlink="http://www.w3.org/1999/xlink" 
	 viewBox="0 0 51.519 51.519" xml:space="preserve">
<g>
	<path d="M47.392,21.778l-0.38-1.521l-1.415,1.145c-0.508-1.412-1.039-2.263-1.283-2.61l-0.271-0.386l-0.469-0.036
		c-0.314-0.023-1.003-0.043-1.99,0.081l0.624-1.909l-1.745,0.425c-0.486,0.118-1.022,0.271-1.596,0.461
		c0-0.003,0.001-0.005,0.001-0.008C39.09,5.93,34.252,0.83,33.7,0.286c-0.01-0.01-0.024-0.012-0.035-0.021
		c-0.012-0.011-0.017-0.026-0.029-0.036c-0.066-0.055-0.143-0.081-0.217-0.116c-0.037-0.017-0.067-0.044-0.106-0.057
		c-0.134-0.045-0.274-0.065-0.412-0.051c-0.002,0-0.003-0.001-0.005-0.001c-0.771,0.079-7.738,1.036-14.795,10.203
		c-0.4,0.617-0.772,1.258-1.131,1.911c-3.203-2.297-5.655-2.888-6.377-3.014C10.3,9.052,9.998,9.135,9.772,9.329
		c-0.367,0.314-2.516,2.278-4.225,6.505c-0.023,0.047-0.04,0.093-0.056,0.144c-1.01,2.543-1.857,5.884-2.072,10.164
		c0.078,2.485,0.466,5.013,1.153,7.511c0.684,2.499,1.641,4.87,2.886,7.12c2.879,4.333,5.504,5.412,7.644,5.412
		c1.275,0,2.377-0.383,3.258-0.688c0.464-0.161,2.474-0.725,2.8-0.8c0.996,2.025,2.716,2.862,3.967,3.468
		c0.442,0.214,2.576,1.429,2.985,1.699c1.068,0.706,2.505,1.656,4.491,1.656c1.887,0,4.269-0.857,7.299-3.599
		c1.703-1.813,3.216-3.874,4.496-6.127c1.284-2.252,2.284-4.605,2.993-7.075C48.585,28.801,48.05,24.416,47.392,21.778z
		 M40.883,20.592c0.91-0.187,1.607-0.234,2.052-0.24c0.262,0.455,0.649,1.24,1.003,2.392l-5.111,4.136L40.883,20.592z M30.512,2.678
		c-0.795,1.19-1.588,2.541-2.442,4.161C27.813,7.328,28,7.932,28.488,8.19c0.149,0.078,0.308,0.115,0.465,0.115
		c0.359,0,0.707-0.194,0.886-0.534c1.13-2.145,2.143-3.792,3.194-5.195c1.357,1.792,3.999,6.367,3.839,14.723
		c-0.032,0.313-0.072,0.627-0.116,0.939c-0.026,0.012-0.052,0.025-0.079,0.037c-0.265,0.118-0.537,0.245-0.813,0.38
		c-0.181,0.088-0.361,0.18-0.541,0.273c-0.105,0.054-0.21,0.109-0.316,0.165c-1.018,0.54-2.031,1.159-3.036,1.856
		c-0.066,0.045-0.131,0.091-0.197,0.137c-0.231,0.162-0.461,0.328-0.691,0.499c-0.096,0.071-0.192,0.145-0.289,0.218
		c-0.212,0.161-0.424,0.323-0.636,0.491c-0.136,0.108-0.273,0.222-0.41,0.334c-0.178,0.146-0.357,0.289-0.535,0.44
		c-0.319,0.271-0.641,0.551-0.965,0.844c-0.426,0.453-0.839,0.921-1.24,1.405c-0.828,0.998-1.601,2.06-2.317,3.176
		c-0.001,0.001-0.002,0.002-0.003,0.003c-0.326,0.506-0.638,1.021-0.936,1.543c-0.04,0.071-0.076,0.147-0.116,0.218
		c-0.341,0.608-0.658,1.225-0.957,1.848c-0.006,0.012-0.014,0.029-0.024,0.051l-0.022,0.048l0,0c-0.01,0.021-0.019,0.043-0.03,0.065
		l-0.001,0c-0.001,0.001,0,0.003-0.001,0.004c-0.035,0.073-0.067,0.147-0.101,0.22c0.789-6.431,2.232-12.468,4.312-17.963
		c0.196-0.517-0.064-1.094-0.581-1.29c-0.517-0.195-1.094,0.065-1.289,0.581c-2.203,5.819-3.708,12.222-4.498,19.042
		c-0.18-0.055-0.352-0.111-0.545-0.165c-2.201-0.611-4.939-1.373-4.813-8.044c0.235-2.316,0.764-4.655,1.573-6.952
		c0.422-1.206,0.944-2.43,1.549-3.638c0.003-0.005,0.002-0.011,0.005-0.016c0.471-0.939,0.975-1.843,1.52-2.687
		C23.922,5.922,27.973,3.638,30.512,2.678z M20.544,42.784c-0.382,0.095-2.19,0.597-2.839,0.822
		c-2.159,0.751-4.843,1.685-8.537-3.871c-1.127-2.041-2.024-4.265-2.666-6.612c-0.646-2.347-1.01-4.717-1.084-6.962
		c0.189-3.726,0.877-6.654,1.711-8.92c1.504-0.069,3.002-0.277,4.461-0.637c0.536-0.132,0.864-0.674,0.731-1.21
		c-0.132-0.537-0.678-0.866-1.21-0.731c-1.018,0.251-2.058,0.418-3.105,0.515c1.052-2.146,2.145-3.425,2.715-3.999
		c0.909,0.235,2.868,0.911,5.337,2.734c-0.03,0.063-0.055,0.127-0.084,0.191c-0.201,0.436-0.4,0.873-0.583,1.321
		c-0.223,0.54-0.431,1.079-0.619,1.615c-0.86,2.445-1.424,4.939-1.681,7.495c-0.161,8.302,3.867,9.422,6.273,10.091
		c0.473,0.132,1.882,0.731,1.916,0.731c0.008,0,0.037-0.001,0.043-0.002c-0.019,0.055-0.035,0.112-0.054,0.167
		c-0.188,0.529-0.351,1.029-0.49,1.513c-0.007,0.026-0.014,0.053-0.02,0.08c-0.108,0.536-0.19,1.042-0.253,1.525
		c-0.022,0.166-0.031,0.32-0.047,0.481c-0.033,0.317-0.064,0.632-0.078,0.926c-0.008,0.157-0.007,0.307-0.009,0.46
		c-0.005,0.304-0.003,0.598,0.011,0.877c0.006,0.109,0.013,0.218,0.022,0.325c0.029,0.369,0.074,0.717,0.135,1.043
		C20.541,42.762,20.542,42.774,20.544,42.784z M45.45,34.245c-0.645,2.238-1.583,4.444-2.789,6.56
		c-1.203,2.116-2.622,4.05-4.158,5.689c-5.009,4.53-7.381,2.961-9.288,1.701c-0.573-0.379-2.597-1.531-3.216-1.831
		c-1.219-0.591-2.609-1.276-3.269-3.093c-0.005-0.018,0-0.036-0.007-0.054c-0.48-1.395-0.484-3.299-0.013-5.659
		c0.124-0.427,0.266-0.853,0.411-1.277c0.135-0.385,0.282-0.784,0.453-1.221c0.266-0.68,0.555-1.342,0.859-1.987
		c0.022-0.048,0.051-0.111,0.053-0.114c0.001-0.001,0-0.003,0.001-0.005l0.001-0.001c0.315-0.662,0.649-1.305,1-1.921
		c0-0.001,0.001-0.001,0.002-0.002c0.28-0.492,0.575-0.975,0.88-1.451c0,0,0,0,0,0c0.311-0.485,0.634-0.955,0.965-1.414
		c0.003-0.004,0.007-0.007,0.009-0.011c0.002-0.003,0.002-0.005,0.004-0.008c0.726-1.003,1.495-1.946,2.299-2.805
		c0.415-0.375,0.824-0.724,1.23-1.059c0.119-0.098,0.238-0.192,0.357-0.288c0.298-0.239,0.592-0.469,0.884-0.688
		c0.121-0.091,0.242-0.182,0.363-0.27c0.31-0.226,0.615-0.439,0.917-0.642c0.09-0.061,0.18-0.125,0.27-0.185
		c0.797-0.526,1.566-0.978,2.298-1.366c0.149-0.079,0.298-0.149,0.448-0.224c0.209-0.105,0.42-0.214,0.623-0.309
		c0.252-0.118,0.504-0.227,0.757-0.334c0.474-0.202,0.934-0.387,1.363-0.537l-4.333,13.255l10.953-8.865
		C46.189,26.3,46.341,29.813,45.45,34.245z"/>
	<path d="M32.58,25.633c-0.31,0.186-7.597,4.67-8.051,13.724c-0.028,0.552,0.397,1.021,0.948,1.049
		c0.017,0.001,0.034,0.001,0.051,0.001c0.529,0,0.971-0.415,0.998-0.95c0.4-7.965,7.02-12.07,7.086-12.111
		c0.472-0.285,0.623-0.9,0.338-1.372C33.666,25.501,33.052,25.347,32.58,25.633z"/>
</g>
</svg>