<svg xmlns="http://www.w3.org/2000/svg" xmlns:xlink="http://www.w3.org/1999/xlink" version="1.1" width="256" height="256" viewBox="0 0 256 256" xml:space="preserve">

<defs>
</defs>
<g style="stroke: none; stroke-width: 0; stroke-dasharray: none; stroke-linecap: butt; stroke-linejoin: miter; stroke-miterlimit: 10; fill: none; fill-rule: nonzero; opacity: 1;" transform="translate(1.4065934065934016 1.4065934065934016) scale(2.81 2.81)" >
	<path d="M 52.864 31.272 c -0.159 0 -0.319 -0.038 -0.466 -0.115 L 45 27.268 l -7.399 3.89 c -0.336 0.176 -0.745 0.148 -1.053 -0.076 c -0.308 -0.224 -0.462 -0.603 -0.398 -0.978 l 1.413 -8.239 l -5.986 -5.835 c -0.272 -0.266 -0.371 -0.663 -0.253 -1.025 s 0.431 -0.626 0.807 -0.681 l 8.273 -1.202 l 3.699 -7.496 c 0.337 -0.683 1.457 -0.683 1.793 0 l 3.7 7.496 l 8.272 1.202 c 0.377 0.055 0.689 0.319 0.808 0.681 c 0.117 0.362 0.02 0.759 -0.253 1.025 l -5.987 5.835 l 1.413 8.239 c 0.064 0.375 -0.09 0.754 -0.397 0.978 C 53.277 31.208 53.071 31.272 52.864 31.272 z" style="stroke: none; stroke-width: 1; stroke-dasharray: none; stroke-linecap: butt; stroke-linejoin: miter; stroke-miterlimit: 10; fill: rgb(0,0,0); fill-rule: nonzero; opacity: 1;" transform=" matrix(1 0 0 1 0 0) " stroke-linecap="round" />
	<path d="M 58.391 51.846 h -0.325 c -0.871 0 -1.683 0.257 -2.364 0.699 c -0.154 -2.261 -2.044 -4.053 -4.344 -4.053 h -0.325 c -0.936 0 -1.804 0.297 -2.514 0.801 c -0.514 -1.833 -2.199 -3.181 -4.194 -3.181 h -0.325 c -0.867 0 -1.675 0.255 -2.354 0.692 v -7.644 c 0 -2.401 -1.953 -4.354 -4.354 -4.354 h -0.325 c -2.401 0 -4.354 1.953 -4.354 4.354 v 17.888 l -2.368 1.796 c -1.644 1.249 -2.686 3.064 -2.934 5.113 s 0.33 4.06 1.627 5.663 l 6.928 8.565 v 3.517 c 0 1.78 1.449 3.229 3.229 3.229 h 17.042 c 1.78 0 3.229 -1.449 3.229 -3.229 l 0.001 -3.345 c 2.181 -2.683 3.377 -6.034 3.377 -9.48 V 56.2 C 62.745 53.799 60.792 51.846 58.391 51.846 z" style="stroke: none; stroke-width: 1; stroke-dasharray: none; stroke-linecap: butt; stroke-linejoin: miter; stroke-miterlimit: 10; fill: rgb(0,0,0); fill-rule: nonzero; opacity: 1;" transform=" matrix(1 0 0 1 0 0) " stroke-linecap="round" />
	<path d="M 68.41 31.272 c -0.207 0 -0.413 -0.064 -0.588 -0.191 c -0.308 -0.224 -0.462 -0.603 -0.397 -0.978 l 1.413 -8.239 l -5.986 -5.835 c -0.272 -0.266 -0.37 -0.663 -0.253 -1.025 c 0.118 -0.362 0.431 -0.626 0.808 -0.681 l 8.272 -1.202 l 3.699 -7.496 c 0.336 -0.683 1.457 -0.683 1.793 0 l 3.7 7.496 l 8.272 1.202 c 0.377 0.055 0.689 0.319 0.808 0.681 c 0.117 0.362 0.02 0.759 -0.253 1.025 l -5.986 5.835 l 1.413 8.239 c 0.064 0.375 -0.09 0.754 -0.397 0.978 c -0.308 0.224 -0.718 0.252 -1.053 0.076 l -7.4 -3.89 l -7.398 3.89 C 68.729 31.234 68.569 31.272 68.41 31.272 z" style="stroke: none; stroke-width: 1; stroke-dasharray: none; stroke-linecap: butt; stroke-linejoin: miter; stroke-miterlimit: 10; fill: rgb(0,0,0); fill-rule: nonzero; opacity: 1;" transform=" matrix(1 0 0 1 0 0) " stroke-linecap="round" />
	<path d="M 5.861 31.272 c -0.207 0 -0.414 -0.064 -0.588 -0.191 c -0.308 -0.224 -0.462 -0.603 -0.398 -0.978 l 1.413 -8.239 l -5.986 -5.835 c -0.272 -0.266 -0.371 -0.663 -0.253 -1.025 c 0.118 -0.362 0.431 -0.626 0.807 -0.681 l 8.273 -1.202 l 3.699 -7.496 c 0.337 -0.683 1.457 -0.683 1.793 0 l 3.7 7.496 l 8.273 1.202 c 0.376 0.055 0.689 0.319 0.807 0.681 c 0.118 0.362 0.02 0.759 -0.253 1.025 l -5.986 5.835 l 1.413 8.239 c 0.064 0.375 -0.09 0.754 -0.398 0.978 c -0.308 0.224 -0.715 0.252 -1.053 0.076 l -7.399 -3.89 l -7.399 3.89 C 6.18 31.234 6.02 31.272 5.861 31.272 z" style="stroke: none; stroke-width: 1; stroke-dasharray: none; stroke-linecap: butt; stroke-linejoin: miter; stroke-miterlimit: 10; fill: rgb(0,0,0); fill-rule: nonzero; opacity: 1;" transform=" matrix(1 0 0 1 0 0) " stroke-linecap="round" />
</g>
</svg>